<svg width="1600" height="420" viewBox="0 0 1600 420" fill="none" xmlns="http://www.w3.org/2000/svg">
  <defs>
    <radialGradient id="glow1" cx="50%" cy="50%" r="50%">
      <stop offset="0%" stop-color="#00D4FF" stop-opacity="0.24"/>
      <stop offset="100%" stop-color="#00D4FF" stop-opacity="0"/>
    </radialGradient>

    <radialGradient id="glow2" cx="50%" cy="50%" r="50%">
      <stop offset="0%" stop-color="#4F46E5" stop-opacity="0.28"/>
      <stop offset="100%" stop-color="#4F46E5" stop-opacity="0"/>
    </radialGradient>

    <linearGradient id="cardGradient" x1="0" y1="0" x2="1" y2="1">
      <stop offset="0%" stop-color="#101A2D"/>
      <stop offset="100%" stop-color="#0B1220"/>
    </linearGradient>
  </defs>

  <rect width="1600" height="420" fill="#070D18"/>

  <circle cx="1120" cy="100" r="380" fill="url(#glow1)"/>
  <circle cx="1460" cy="310" r="330" fill="url(#glow2)"/>

  <rect x="28" y="28" width="1544" height="364" rx="26" fill="#0B1220" stroke="#1E3A5F"/>

  <!-- dotted world map silhouette -->
<g opacity="0.22" fill="#00D4FF">
  <!-- Americas -->
  <circle cx="650" cy="105" r="3"/>
  <circle cx="675" cy="95" r="3"/>
  <circle cx="700" cy="110" r="3"/>
  <circle cx="670" cy="130" r="3"/>
  <circle cx="695" cy="145" r="3"/>
  <circle cx="720" cy="160" r="3"/>
  <circle cx="735" cy="185" r="3"/>
  <circle cx="750" cy="210" r="3"/>

  <!-- Europe / Africa -->
  <circle cx="845" cy="105" r="3"/>
  <circle cx="870" cy="100" r="3"/>
  <circle cx="895" cy="115" r="3"/>
  <circle cx="875" cy="140" r="3"/>
  <circle cx="895" cy="165" r="3"/>
  <circle cx="910" cy="195" r="3"/>
  <circle cx="925" cy="225" r="3"/>
  <circle cx="940" cy="255" r="3"/>

  <!-- Middle East / Asia -->
  <circle cx="970" cy="120" r="3"/>
  <circle cx="1000" cy="110" r="3"/>
  <circle cx="1030" cy="125" r="3"/>
  <circle cx="1060" cy="140" r="3"/>
  <circle cx="1090" cy="130" r="3"/>
  <circle cx="1120" cy="145" r="3"/>
  <circle cx="1150" cy="160" r="3"/>
  <circle cx="1180" cy="180" r="3"/>
  <circle cx="1210" cy="200" r="3"/>
  <circle cx="1240" cy="220" r="3"/>
  <circle cx="1270" cy="240" r="3"/>

  <!-- Australia -->
  <circle cx="1320" cy="270" r="3"/>
  <circle cx="1350" cy="280" r="3"/>
  <circle cx="1380" cy="270" r="3"/>
  <circle cx="1365" cy="300" r="3"/>
</g>

  <!-- network lines -->
  <g opacity="0.25">
    <line x1="760" y1="105" x2="870" y2="95" stroke="#00D4FF"/>
    <line x1="870" y1="95" x2="985" y2="150" stroke="#00D4FF"/>
    <line x1="985" y1="150" x2="1105" y2="145" stroke="#00D4FF"/>
    <line x1="1105" y1="145" x2="1225" y2="205" stroke="#4F46E5"/>
    <line x1="1225" y1="205" x2="1345" y2="195" stroke="#4F46E5"/>
    <line x1="1345" y1="195" x2="1425" y2="214" stroke="#4F46E5"/>
  </g>

  <!-- small label chip -->
  <rect x="90" y="72" width="235" height="34" rx="17" fill="#101A2D" stroke="#00D4FF" stroke-opacity="0.45"/>
  <text x="110" y="95" fill="#8BE9FF" font-size="15" font-family="Segoe UI, Arial, sans-serif" font-weight="700">
    GLOBAL PAYMENTS INFRA
  </text>

  <!-- left copy -->
  <text x="90" y="155" fill="white" font-size="58" font-family="Segoe UI, Arial, sans-serif" font-weight="800">
    BATUHAN BITER
  </text>

  <text x="92" y="210" fill="#00D4FF" font-size="30" font-family="Segoe UI, Arial, sans-serif" font-weight="700">
    Senior Backend Engineer @ Financial House
  </text>

  <text x="92" y="255" fill="#CBD5E1" font-size="23" font-family="Segoe UI, Arial, sans-serif">
    FinTech • Payments • Distributed Systems • London, UK
  </text>

  <text x="92" y="335" fill="#94A3B8" font-size="22" font-family="Segoe UI, Arial, sans-serif">
    Building reliable financial infrastructure at scale.
  </text>

  <!-- achievement cards -->
  <rect x="930" y="70" width="255" height="100" rx="18" fill="url(#cardGradient)" stroke="#00D4FF" stroke-opacity="0.8"/>
  <text x="965" y="115" fill="#00D4FF" font-size="36" font-family="Segoe UI, Arial, sans-serif" font-weight="800">50+</text>
  <text x="965" y="146" fill="#E2E8F0" font-size="18" font-family="Segoe UI, Arial, sans-serif">PSP Integrations</text>

  <rect x="1215" y="70" width="255" height="100" rx="18" fill="url(#cardGradient)" stroke="#4F46E5" stroke-opacity="0.9"/>
  <text x="1250" y="115" fill="#8B7CFF" font-size="30" font-family="Segoe UI, Arial, sans-serif" font-weight="800">30s → 300ms</text>
  <text x="1250" y="146" fill="#E2E8F0" font-size="18" font-family="Segoe UI, Arial, sans-serif">API Optimization</text>

  <rect x="930" y="200" width="255" height="100" rx="18" fill="url(#cardGradient)" stroke="#00D4FF" stroke-opacity="0.8"/>
  <text x="965" y="245" fill="#00D4FF" font-size="36" font-family="Segoe UI, Arial, sans-serif" font-weight="800">12M+</text>
  <text x="965" y="276" fill="#E2E8F0" font-size="18" font-family="Segoe UI, Arial, sans-serif">Records Migrated</text>

  <rect x="1215" y="200" width="255" height="100" rx="18" fill="url(#cardGradient)" stroke="#4F46E5" stroke-opacity="0.9"/>
  <text x="1250" y="245" fill="#8B7CFF" font-size="36" font-family="Segoe UI, Arial, sans-serif" font-weight="800">PCI</text>
  <text x="1250" y="276" fill="#E2E8F0" font-size="18" font-family="Segoe UI, Arial, sans-serif">Compliant Systems</text>

  <text x="1095" y="352" fill="#64748B" font-size="16" font-family="Segoe UI, Arial, sans-serif">
    Java • Spring Boot • AWS • Kubernetes • PostgreSQL
  </text>
</svg>
